<?xml version="1.0" standalone="no"?>
<!DOCTYPE svg PUBLIC "-//W3C//DTD SVG 20010904//EN"
 "http://www.w3.org/TR/2001/REC-SVG-20010904/DTD/svg10.dtd">
<svg version="1.0" xmlns="http://www.w3.org/2000/svg"
 width="512.000000pt" height="512.000000pt" viewBox="0 0 512.000000 512.000000"
 preserveAspectRatio="xMidYMid meet">
<metadata>
Created by potrace 1.14, written by Peter Selinger 2001-2017
</metadata>
<g transform="translate(0.000000,512.000000) scale(0.100000,-0.100000)"
fill="#000000" stroke="none">
<path d="M2475 5002 c-2 -2 -43 -5 -91 -7 -49 -1 -105 -6 -124 -9 -95 -16
-117 -19 -147 -20 -18 0 -33 -3 -33 -6 0 -3 -8 -7 -17 -8 -21 -2 -57 -10 -60
-12 -2 -2 -11 -3 -20 -5 -10 -1 -26 -5 -35 -9 -9 -4 -21 -5 -27 -2 -5 3 -11 2
-13 -3 -1 -6 -18 -13 -37 -16 -18 -3 -49 -12 -67 -20 -19 -8 -34 -12 -34 -9 0
2 -13 -2 -30 -11 -16 -8 -33 -16 -37 -17 -5 0 -21 -6 -38 -12 -16 -5 -33 -9
-37 -8 -5 1 -8 -3 -8 -9 0 -5 -4 -8 -9 -4 -5 3 -12 1 -16 -5 -4 -6 -11 -8 -16
-5 -5 4 -9 1 -9 -4 0 -6 -6 -11 -12 -11 -7 0 -58 -23 -113 -52 -55 -28 -110
-56 -122 -62 -13 -6 -23 -14 -23 -18 0 -5 -5 -8 -10 -8 -12 0 -94 -52 -98 -62
-2 -5 -8 -8 -14 -8 -9 0 -28 -14 -85 -60 -7 -6 -15 -10 -18 -10 -3 0 -13 -8
-23 -17 -10 -10 -35 -31 -56 -48 -78 -62 -226 -203 -226 -217 0 -4 -8 -8 -17
-8 -9 0 -14 -3 -11 -6 3 -3 -6 -18 -20 -34 -37 -39 -69 -78 -100 -119 -15 -20
-29 -38 -32 -41 -3 -3 -18 -24 -34 -47 -16 -24 -33 -43 -39 -43 -6 0 -7 -3 -4
-6 3 -4 -3 -18 -13 -32 -11 -13 -20 -30 -20 -37 0 -6 -9 -20 -20 -30 -11 -10
-18 -20 -16 -23 3 -2 0 -10 -7 -18 -28 -31 -38 -44 -33 -44 3 0 -18 -44 -45
-97 -28 -54 -51 -100 -51 -103 0 -3 -4 -15 -9 -28 -5 -13 -9 -28 -9 -33 0 -6
-4 -8 -9 -5 -5 4 -8 -2 -6 -11 1 -10 -5 -27 -14 -37 -9 -11 -11 -16 -4 -12 8
4 7 -2 -2 -21 -8 -15 -15 -34 -15 -40 0 -7 -4 -13 -9 -13 -5 0 -7 -9 -4 -20 3
-11 1 -20 -4 -20 -5 0 -10 -6 -10 -12 0 -7 -6 -33 -13 -58 -6 -25 -14 -57 -17
-72 -3 -16 -9 -28 -13 -28 -5 0 -6 -10 -2 -22 4 -16 2 -19 -9 -13 -11 7 -12 6
-2 -7 7 -8 10 -17 7 -20 -5 -5 -12 -39 -19 -88 -2 -14 -4 -26 -6 -27 -1 -2 -3
-12 -4 -23 -1 -11 -4 -21 -5 -22 -1 -2 -3 -23 -5 -48 -4 -59 -14 -174 -15
-180 -1 -7 1 -225 3 -332 1 -48 6 -84 11 -80 5 3 7 -5 4 -16 -4 -12 -3 -24 2
-27 4 -3 7 -25 6 -49 -1 -25 2 -42 8 -39 5 3 7 -8 4 -25 -3 -19 0 -29 5 -25 6
4 8 -3 5 -15 -4 -12 -3 -22 2 -22 4 0 10 -9 13 -20 3 -11 0 -20 -6 -20 -7 0
-6 -4 3 -10 8 -5 12 -12 8 -15 -3 -4 0 -22 8 -41 8 -19 15 -37 15 -41 2 -13
10 -36 20 -62 7 -17 7 -26 -1 -31 -8 -5 -6 -9 5 -14 9 -3 13 -10 10 -16 -3 -5
-2 -10 3 -10 5 0 9 -6 9 -12 1 -15 26 -81 33 -88 6 -6 12 -29 14 -57 0 -12 6
-21 11 -20 6 1 9 -8 9 -20 -1 -12 4 -21 10 -20 6 1 10 -8 10 -21 -1 -12 1 -21
3 -18 5 5 53 -83 53 -97 0 -4 9 -17 20 -29 18 -20 25 -39 21 -60 0 -5 5 -7 12
-5 6 1 12 -5 12 -13 0 -8 12 -28 27 -45 26 -28 33 -46 28 -70 -1 -5 1 -7 5 -3
9 8 35 -16 35 -31 0 -6 5 -11 10 -11 6 0 10 -5 10 -10 0 -6 9 -20 20 -32 11
-12 20 -28 20 -35 0 -8 5 -11 10 -8 10 6 15 -9 10 -30 -1 -5 1 -7 5 -3 7 7 35
-15 35 -27 0 -3 15 -21 32 -39 18 -19 53 -57 78 -85 25 -27 51 -50 58 -51 6 0
12 -4 12 -9 0 -5 16 -24 35 -42 18 -18 31 -37 28 -43 -3 -6 -3 -8 2 -4 12 11
66 -25 60 -40 -2 -7 0 -10 5 -7 6 3 10 1 10 -5 0 -6 5 -8 10 -5 6 3 10 1 10
-4 0 -6 7 -11 15 -11 13 0 19 -12 16 -32 0 -4 6 -5 14 -2 8 4 15 1 15 -7 0 -7
3 -9 6 -6 4 4 15 -3 25 -15 11 -11 19 -18 19 -14 0 4 7 1 15 -6 34 -31 43 -36
49 -31 3 4 6 -1 6 -10 0 -9 3 -16 8 -15 16 3 63 -23 57 -32 -3 -6 1 -7 9 -4 9
4 18 -1 22 -10 3 -9 10 -13 15 -10 5 3 9 1 9 -4 0 -5 10 -13 23 -17 27 -9 26
-9 59 -25 15 -7 25 -17 21 -23 -3 -6 -2 -7 4 -4 16 10 114 -43 107 -56 -5 -8
-3 -8 6 0 14 13 55 -1 45 -16 -2 -5 6 -8 19 -8 13 -1 38 -8 56 -17 18 -8 36
-13 41 -10 5 3 9 0 9 -5 0 -6 7 -11 16 -11 8 0 13 -4 10 -9 -3 -4 6 -6 19 -3
14 2 25 0 25 -6 0 -6 8 -8 19 -5 10 3 22 0 25 -6 4 -6 16 -11 27 -11 11 0 18
-4 14 -9 -3 -6 5 -8 19 -5 14 2 27 0 31 -5 3 -6 12 -8 20 -4 8 3 15 0 15 -5 0
-6 9 -9 20 -7 11 2 22 0 25 -5 3 -5 13 -6 22 -3 9 4 14 2 10 -3 -3 -6 8 -9 29
-8 23 2 32 0 28 -8 -5 -7 -3 -8 5 -4 7 5 21 0 32 -10 16 -14 20 -15 17 -4 -2
9 3 14 12 12 45 -11 126 -20 235 -28 44 -3 83 -11 87 -18 6 -8 8 -8 8 1 0 14
117 13 139 -1 10 -7 12 -6 6 4 -6 9 4 11 44 9 28 -2 51 0 51 4 0 5 5 5 10 2 6
-4 7 -11 4 -17 -4 -7 -2 -8 5 -4 6 4 9 11 6 16 -3 5 10 7 30 6 19 -2 35 -1 35
3 0 3 24 7 53 9 47 2 92 8 92 12 0 3 39 10 76 13 20 2 41 7 48 11 7 4 19 2 27
-5 12 -10 15 -10 12 2 -2 9 5 14 20 13 12 -1 22 3 22 8 0 6 7 8 15 5 8 -4 17
-2 20 3 3 4 16 7 30 5 15 -1 29 4 35 14 8 13 11 14 19 2 7 -11 10 -11 17 2 5
9 22 18 37 21 16 3 35 10 42 16 8 7 18 9 23 6 6 -3 15 1 22 9 7 9 23 13 36 11
15 -3 27 1 33 11 5 10 15 14 25 10 9 -4 15 -3 12 2 -7 10 22 25 42 22 6 -1 12
4 12 10 0 7 3 9 6 6 4 -4 19 2 33 11 29 20 72 40 83 38 4 0 14 8 22 19 9 11
16 16 16 12 0 -4 20 6 44 23 25 16 49 30 55 30 6 0 11 5 11 11 0 5 5 7 10 4 6
-3 10 -1 10 6 0 7 3 10 6 6 3 -3 18 5 33 19 14 13 32 22 39 19 7 -3 11 -1 8 4
-3 5 1 14 9 21 8 7 15 10 15 7 0 -3 17 10 38 28 20 19 41 35 45 35 4 0 18 11
31 25 13 14 28 25 34 25 5 0 13 7 16 16 3 8 10 12 16 9 5 -3 10 1 10 10 0 9 3
14 8 12 9 -5 42 30 34 37 -3 3 0 6 6 6 6 0 34 24 63 53 29 29 58 51 67 49 11
-2 13 0 5 5 -8 6 -2 19 21 45 19 21 37 34 41 30 3 -4 5 -2 3 3 -4 15 27 56 37
47 5 -4 5 -2 2 4 -3 6 3 20 13 32 11 12 20 26 20 32 0 5 3 9 8 7 4 -1 7 0 8 3
2 15 26 51 31 46 3 -3 16 14 29 37 15 29 28 41 41 39 13 -2 15 -1 5 6 -12 8
-12 13 -1 31 8 11 17 21 22 21 4 0 6 4 2 9 -3 6 0 13 8 18 7 4 21 27 31 50 10
23 22 40 26 38 5 -3 6 5 2 17 -4 17 -2 20 11 15 12 -4 14 -2 10 10 -3 8 0 18
6 23 7 4 13 13 15 21 5 31 20 65 38 91 11 16 16 28 12 28 -3 0 0 7 7 16 7 9
14 25 16 36 2 10 10 32 18 47 8 16 11 31 8 35 -4 3 2 6 13 6 15 0 16 2 5 9
-11 7 -12 13 -4 23 11 13 13 18 13 39 0 5 4 8 8 5 5 -3 8 5 7 17 -1 12 2 31 6
42 19 51 22 61 20 78 -1 9 3 17 10 17 7 0 9 3 6 7 -4 3 -1 13 6 21 10 13 9 14
-3 7 -13 -8 -13 -7 -1 8 7 9 11 17 8 17 -10 0 14 85 26 92 9 6 9 8 0 8 -12 0
-9 42 4 64 4 5 7 33 9 60 1 28 3 53 4 56 1 3 1 18 0 34 -1 19 2 26 10 21 9 -5
9 -2 2 11 -5 11 -8 30 -6 44 5 36 7 222 3 240 -3 9 2 14 10 12 12 -3 12 0 2
12 -7 9 -15 46 -18 83 -7 107 -9 118 -17 131 -4 7 -2 12 6 12 8 0 9 3 3 8 -10
7 -18 46 -19 94 -1 14 -5 24 -10 20 -5 -3 -7 2 -3 10 3 9 3 19 -1 23 -4 4 -7
14 -8 23 -1 19 -12 68 -21 92 -8 20 -12 40 -15 68 -1 12 -6 22 -10 22 -4 0 -7
3 -6 8 1 4 -5 27 -12 52 -7 25 -13 48 -12 53 1 4 -2 7 -7 7 -8 0 -25 56 -22
73 0 4 -3 7 -9 7 -6 0 -9 3 -8 8 1 4 -3 16 -9 27 -6 11 -13 29 -14 40 -2 11
-7 22 -11 25 -3 3 -8 12 -10 20 -2 8 -9 21 -16 28 -7 8 -10 18 -7 23 4 5 2 9
-3 9 -13 0 -33 50 -26 63 4 7 3 9 -1 4 -10 -8 -46 43 -39 55 3 4 0 8 -5 8 -6
0 -11 7 -11 15 0 8 -5 15 -11 15 -5 0 -7 5 -4 10 3 6 1 10 -6 10 -7 0 -10 3
-6 6 3 3 -5 18 -18 32 -13 14 -22 29 -19 34 3 4 0 8 -6 8 -6 0 -8 5 -5 10 3 6
0 10 -7 10 -7 0 -19 13 -26 29 -7 16 -24 42 -38 57 -44 51 -64 81 -56 88 4 4
0 6 -8 4 -8 -1 -14 3 -12 10 1 6 -4 12 -11 12 -13 0 -43 40 -39 53 1 4 -4 7
-10 7 -7 0 -22 14 -33 30 -11 16 -26 30 -32 30 -7 0 -13 4 -13 9 0 6 -18 27
-41 48 -22 21 -56 53 -75 71 -18 17 -38 32 -44 32 -6 0 -8 5 -5 10 3 6 1 10
-4 10 -6 0 -19 8 -30 18 -26 24 -59 49 -103 79 -21 14 -38 30 -38 34 0 5 -9 9
-21 9 -11 0 -17 5 -14 10 3 6 1 10 -5 10 -6 0 -38 18 -71 40 -32 23 -59 38
-59 34 0 -4 -8 0 -17 8 -31 28 -235 126 -353 171 -36 13 -74 28 -85 32 -11 5
-27 9 -35 10 -35 4 -110 30 -110 38 0 4 -4 6 -8 3 -5 -3 -33 1 -63 9 -30 7
-70 16 -89 20 -131 22 -225 35 -274 37 -31 2 -56 6 -56 11 0 4 -5 5 -12 1 -6
-4 -32 -6 -57 -5 -109 5 -143 6 -146 3z"/>
<path d="M1456 358 c3 -5 10 -6 15 -3 13 9 11 12 -6 12 -8 0 -12 -4 -9 -9z"/>
</g>
</svg>
